<?xml version="1.0" encoding="UTF-8" standalone="no"?>
<!-- Generator: Adobe Illustrator 16.0.0, SVG Export Plug-In . SVG Version: 6.00 Build 0)  -->

<svg
   xmlns:dc="http://purl.org/dc/elements/1.1/"
   xmlns:cc="http://creativecommons.org/ns#"
   xmlns:rdf="http://www.w3.org/1999/02/22-rdf-syntax-ns#"
   xmlns:svg="http://www.w3.org/2000/svg"
   xmlns="http://www.w3.org/2000/svg"
   xmlns:sodipodi="http://sodipodi.sourceforge.net/DTD/sodipodi-0.dtd"
   xmlns:inkscape="http://www.inkscape.org/namespaces/inkscape"
   version="1.1"
   id="Capa_1"
   x="0px"
   y="0px"
   width="70.667999"
   height="48.667999"
   viewBox="0 0 70.668 48.668"
   xml:space="preserve"
   inkscape:version="0.91 r13725"
   sodipodi:docname="gp.svg"><metadata
     id="metadata43"><rdf:RDF><cc:Work
         rdf:about=""><dc:format>image/svg+xml</dc:format><dc:type
           rdf:resource="http://purl.org/dc/dcmitype/StillImage" /><dc:title></dc:title></cc:Work></rdf:RDF></metadata><defs
     id="defs41" /><sodipodi:namedview
     pagecolor="#ffffff"
     bordercolor="#666666"
     borderopacity="1"
     objecttolerance="10"
     gridtolerance="10"
     guidetolerance="10"
     inkscape:pageopacity="0"
     inkscape:pageshadow="2"
     inkscape:window-width="1920"
     inkscape:window-height="1017"
     id="namedview39"
     showgrid="false"
     inkscape:zoom="5.1677324"
     inkscape:cx="22.834"
     inkscape:cy="16.694146"
     inkscape:window-x="-8"
     inkscape:window-y="-8"
     inkscape:window-maximized="1"
     inkscape:current-layer="Capa_1" /><g
     id="g3"
     style="fill:#ffffff"
     transform="matrix(1.4741635,0,0,2.1482821,1.5480677,-24.239267)"><g
       id="g5"
       style="fill:#ffffff"><path
         d="m 44.167,24.798 c -0.829,0 -1.5,0.67 -1.5,1.5 l 0,0.076 -0.667,0 0,-11.877 c 0,-1.657 -1.343,-3 -3,-3 l -32.333,0 c -1.657,0 -3,1.343 -3,3 l 0,11.877 -0.667,0 0,-0.076 c 0,-0.83 -0.671,-1.5 -1.5,-1.5 -0.829,0 -1.5,0.67 -1.5,1.5 l 0,1.576 c 0,0.83 0.671,1.5 1.5,1.5 l 2.583,0 c 0.428,0.736 1.156,1.271 2.017,1.439 0.417,1.918 2.124,3.357 4.165,3.357 1.069,0 2.035,-0.407 2.784,-1.062 0.75,0.651 1.716,1.062 2.785,1.062 2.018,0 3.705,-1.412 4.144,-3.299 l 5.711,0 c 0.438,1.887 2.125,3.299 4.145,3.299 1.068,0 2.035,-0.407 2.785,-1.062 0.749,0.651 1.716,1.062 2.785,1.062 2.041,0 3.746,-1.439 4.164,-3.357 0.858,-0.168 1.588,-0.703 2.017,-1.439 l 2.583,0 c 0.829,0 1.5,-0.67 1.5,-1.5 l 0,-1.576 c -10e-4,-0.828 -0.672,-1.5 -1.501,-1.5 z m -33.902,6.377 c -0.698,0 -1.266,-0.565 -1.266,-1.264 0,-0.699 0.568,-1.266 1.266,-1.266 0.697,0 1.264,0.564 1.264,1.266 0,0.697 -0.567,1.264 -1.264,1.264 z m 5.569,0 c -0.698,0 -1.266,-0.565 -1.266,-1.264 0,-0.699 0.568,-1.266 1.266,-1.266 0.697,0 1.264,0.564 1.264,1.266 0,0.697 -0.566,1.264 -1.264,1.264 z m 9.284,-11.271 -17.126,0 c -0.552,0 -1,-0.448 -1,-1 0,-0.552 0.448,-1 1,-1 l 17.126,0 c 0.552,0 1,0.448 1,1 0,0.553 -0.448,1 -1,1 z m 0,-3.196 -17.126,0 c -0.552,0 -1,-0.448 -1,-1 0,-0.552 0.448,-1 1,-1 l 17.126,0 c 0.552,0 1,0.448 1,1 0,0.551 -0.448,1 -1,1 z m 4.716,14.467 c -0.698,0 -1.266,-0.565 -1.266,-1.264 0,-0.699 0.565,-1.266 1.266,-1.266 0.697,0 1.266,0.564 1.266,1.266 0,0.697 -0.568,1.264 -1.266,1.264 z m 5.57,0 c -0.698,0 -1.267,-0.565 -1.267,-1.264 0,-0.699 0.566,-1.266 1.267,-1.266 0.696,0 1.265,0.564 1.265,1.266 0,0.697 -0.567,1.264 -1.265,1.264 z m 0.56,-4.877 -6.394,0 c -0.554,0 -1,-0.447 -1,-1 0,-0.553 0.446,-1 1,-1 l 6.394,0 c 0.552,0 1,0.447 1,1 0,0.553 -0.446,1 -1,1 z m 0,-3.196 -6.394,0 c -0.554,0 -1,-0.448 -1,-1 0,-0.552 0.446,-1 1,-1 l 6.394,0 c 0.552,0 1,0.448 1,1 0,0.551 -0.446,1 -1,1 z m 0,-3.198 -6.394,0 c -0.554,0 -1,-0.448 -1,-1 0,-0.552 0.446,-1 1,-1 l 6.394,0 c 0.552,0 1,0.448 1,1 0,0.553 -0.446,1 -1,1 z m 0,-3.196 -6.394,0 c -0.554,0 -1,-0.448 -1,-1 0,-0.552 0.446,-1 1,-1 l 6.394,0 c 0.552,0 1,0.448 1,1 0,0.551 -0.446,1 -1,1 z"
         id="path7"
         style="fill:#ffffff"
         inkscape:connector-curvature="0" /></g></g><g
     id="g9"
     transform="translate(0,3.0000007)" /><g
     id="g11"
     transform="translate(0,3.0000007)" /><g
     id="g13"
     transform="translate(0,3.0000007)" /><g
     id="g15"
     transform="translate(0,3.0000007)" /><g
     id="g17"
     transform="translate(0,3.0000007)" /><g
     id="g19"
     transform="translate(0,3.0000007)" /><g
     id="g21"
     transform="translate(0,3.0000007)" /><g
     id="g23"
     transform="translate(0,3.0000007)" /><g
     id="g25"
     transform="translate(0,3.0000007)" /><g
     id="g27"
     transform="translate(0,3.0000007)" /><g
     id="g29"
     transform="translate(0,3.0000007)" /><g
     id="g31"
     transform="translate(0,3.0000007)" /><g
     id="g33"
     transform="translate(0,3.0000007)" /><g
     id="g35"
     transform="translate(0,3.0000007)" /><g
     id="g37"
     transform="translate(0,3.0000007)" /></svg>