<?xml version="1.0" encoding="UTF-8" standalone="no"?>
<!-- Generator: Adobe Illustrator 17.1.0, SVG Export Plug-In . SVG Version: 6.00 Build 0)  -->

<svg
   xmlns:dc="http://purl.org/dc/elements/1.1/"
   xmlns:cc="http://creativecommons.org/ns#"
   xmlns:rdf="http://www.w3.org/1999/02/22-rdf-syntax-ns#"
   xmlns:svg="http://www.w3.org/2000/svg"
   xmlns="http://www.w3.org/2000/svg"
   xmlns:sodipodi="http://sodipodi.sourceforge.net/DTD/sodipodi-0.dtd"
   xmlns:inkscape="http://www.inkscape.org/namespaces/inkscape"
   version="1.1"
   id="Capa_1"
   x="0px"
   y="0px"
   viewBox="0 0 210.19 210.19"
   style="enable-background:new 0 0 210.19 210.19;"
   xml:space="preserve"
   inkscape:version="0.91 r13725"
   sodipodi:docname="subway5.svg"><metadata
     id="metadata39"><rdf:RDF><cc:Work
         rdf:about=""><dc:format>image/svg+xml</dc:format><dc:type
           rdf:resource="http://purl.org/dc/dcmitype/StillImage" /></cc:Work></rdf:RDF></metadata><defs
     id="defs37" /><sodipodi:namedview
     pagecolor="#ffffff"
     bordercolor="#666666"
     borderopacity="1"
     objecttolerance="10"
     gridtolerance="10"
     guidetolerance="10"
     inkscape:pageopacity="0"
     inkscape:pageshadow="2"
     inkscape:window-width="640"
     inkscape:window-height="480"
     id="namedview35"
     showgrid="false"
     inkscape:zoom="1.1227936"
     inkscape:cx="105.095"
     inkscape:cy="105.095"
     inkscape:window-x="0"
     inkscape:window-y="0"
     inkscape:window-maximized="0"
     inkscape:current-layer="Capa_1" /><path
     d="M151.038,210.19c-1.657,0-3-1.343-3-3v-11.908H62.152v11.908c0,1.657-1.343,3-3,3s-3-1.343-3-3v-11.908H38.095  c-1.657,0-3-1.343-3-3v-21.695c0-1.657,1.343-3,3-3h18.057v-23.198H38.095c-1.657,0-3-1.343-3-3v-21.695c0-1.657,1.343-3,3-3h18.057  V93.497H38.095c-1.657,0-3-1.343-3-3V68.801c0-1.657,1.343-3,3-3h18.057V42.604H38.095c-1.657,0-3-1.343-3-3V17.908  c0-1.657,1.343-3,3-3h18.057V3c0-1.657,1.343-3,3-3s3,1.343,3,3v11.908h85.886V3c0-1.657,1.343-3,3-3s3,1.343,3,3v11.908h18.057  c1.657,0,3,1.343,3,3v21.695c0,1.657-1.343,3-3,3h-18.057v23.198h18.057c1.657,0,3,1.343,3,3v21.695c0,1.657-1.343,3-3,3h-18.057  v23.197h18.057c1.657,0,3,1.343,3,3v21.695c0,1.657-1.343,3-3,3h-18.057v23.198h18.057c1.657,0,3,1.343,3,3v21.695  c0,1.657-1.343,3-3,3h-18.057v11.908C154.038,208.847,152.695,210.19,151.038,210.19z M154.038,189.282h15.057v-15.695h-15.057  V189.282z M62.152,189.282h85.886v-15.695H62.152V189.282z M41.095,189.282h15.057v-15.695H41.095V189.282z M62.152,167.587h85.886  v-23.198H62.152V167.587z M154.038,138.389h15.057v-15.695h-15.057V138.389z M62.152,138.389h85.886v-15.695H62.152V138.389z   M41.095,138.389h15.057v-15.695H41.095V138.389z M62.152,116.694h85.886V93.497H62.152V116.694z M154.038,87.497h15.057V71.801  h-15.057V87.497z M62.152,87.497h85.886V71.801H62.152V87.497z M41.095,87.497h15.057V71.801H41.095V87.497z M62.152,65.801h85.886  V42.604H62.152V65.801z M154.038,36.604h15.057V20.908h-15.057V36.604z M62.152,36.604h85.886V20.908H62.152V36.604z M41.095,36.604  h15.057V20.908H41.095V36.604z"
     id="path3"
     style="fill:#ffffff" /><g
     id="g5" /><g
     id="g7" /><g
     id="g9" /><g
     id="g11" /><g
     id="g13" /><g
     id="g15" /><g
     id="g17" /><g
     id="g19" /><g
     id="g21" /><g
     id="g23" /><g
     id="g25" /><g
     id="g27" /><g
     id="g29" /><g
     id="g31" /><g
     id="g33" /></svg>